<mxfile host="app.diagrams.net" agent="Mozilla/5.0 (Windows NT 10.0; Win64; x64) AppleWebKit/537.36 (KHTML, like Gecko) Chrome/128.0.0.0 Safari/537.36" version="24.7.16">
  <diagram name="Page-1" id="CFMCbQsvI2kkK9DWasnY">
    <mxGraphModel dx="1195" dy="615" grid="1" gridSize="10" guides="1" tooltips="1" connect="1" arrows="1" fold="1" page="1" pageScale="1" pageWidth="850" pageHeight="1100" math="0" shadow="0">
      <root>
        <mxCell id="0" />
        <mxCell id="1" parent="0" />
        <mxCell id="OyjHdzlQmHsCcurxc1R6-5" style="edgeStyle=orthogonalEdgeStyle;rounded=0;orthogonalLoop=1;jettySize=auto;html=1;exitX=0.203;exitY=1.006;exitDx=0;exitDy=0;entryX=0;entryY=0;entryDx=0;entryDy=0;exitPerimeter=0;" parent="1" source="OyjHdzlQmHsCcurxc1R6-2" target="OyjHdzlQmHsCcurxc1R6-1" edge="1">
          <mxGeometry relative="1" as="geometry">
            <mxPoint x="360.36" y="220" as="sourcePoint" />
            <mxPoint x="355.0046609406726" y="334.64466094067257" as="targetPoint" />
            <Array as="points">
              <mxPoint x="379" y="220" />
            </Array>
          </mxGeometry>
        </mxCell>
        <mxCell id="OyjHdzlQmHsCcurxc1R6-6" value="&lt;div style=&quot;font-size: 7px;&quot;&gt;Search, request, &lt;br&gt;extend, reserve&lt;/div&gt;" style="edgeLabel;html=1;align=center;verticalAlign=middle;resizable=0;points=[];" parent="OyjHdzlQmHsCcurxc1R6-5" vertex="1" connectable="0">
          <mxGeometry relative="1" as="geometry">
            <mxPoint as="offset" />
          </mxGeometry>
        </mxCell>
        <mxCell id="SwQY4FijEqjxK7WzBjNQ-2" style="edgeStyle=orthogonalEdgeStyle;rounded=0;orthogonalLoop=1;jettySize=auto;html=1;exitX=0.982;exitY=0.358;exitDx=0;exitDy=0;entryX=0;entryY=0.25;entryDx=0;entryDy=0;exitPerimeter=0;" parent="1" source="OyjHdzlQmHsCcurxc1R6-1" target="OyjHdzlQmHsCcurxc1R6-16" edge="1">
          <mxGeometry relative="1" as="geometry">
            <Array as="points">
              <mxPoint x="465" y="356" />
            </Array>
          </mxGeometry>
        </mxCell>
        <mxCell id="SwQY4FijEqjxK7WzBjNQ-4" value="Authenticate" style="edgeLabel;html=1;align=center;verticalAlign=middle;resizable=0;points=[];fontSize=7;" parent="SwQY4FijEqjxK7WzBjNQ-2" vertex="1" connectable="0">
          <mxGeometry x="-0.0429" relative="1" as="geometry">
            <mxPoint as="offset" />
          </mxGeometry>
        </mxCell>
        <mxCell id="5KCe0Mzcngsaxb6O9eFy-5" style="rounded=0;orthogonalLoop=1;jettySize=auto;html=1;exitX=0;exitY=0.5;exitDx=0;exitDy=0;entryX=1;entryY=0.5;entryDx=0;entryDy=0;" edge="1" parent="1" source="OyjHdzlQmHsCcurxc1R6-1" target="5KCe0Mzcngsaxb6O9eFy-4">
          <mxGeometry relative="1" as="geometry" />
        </mxCell>
        <mxCell id="5KCe0Mzcngsaxb6O9eFy-6" value="Validate guest information" style="edgeLabel;html=1;align=center;verticalAlign=middle;resizable=0;points=[];fontSize=7;" vertex="1" connectable="0" parent="5KCe0Mzcngsaxb6O9eFy-5">
          <mxGeometry x="0.0459" y="1" relative="1" as="geometry">
            <mxPoint as="offset" />
          </mxGeometry>
        </mxCell>
        <mxCell id="5KCe0Mzcngsaxb6O9eFy-9" style="edgeStyle=orthogonalEdgeStyle;rounded=0;orthogonalLoop=1;jettySize=auto;html=1;exitX=0;exitY=0.5;exitDx=0;exitDy=0;entryX=1;entryY=0.5;entryDx=0;entryDy=0;" edge="1" parent="1" source="OyjHdzlQmHsCcurxc1R6-1" target="5KCe0Mzcngsaxb6O9eFy-8">
          <mxGeometry relative="1" as="geometry" />
        </mxCell>
        <mxCell id="5KCe0Mzcngsaxb6O9eFy-10" value="Validate student information" style="edgeLabel;html=1;align=center;verticalAlign=middle;resizable=0;points=[];fontSize=7;" vertex="1" connectable="0" parent="5KCe0Mzcngsaxb6O9eFy-9">
          <mxGeometry x="0.0126" y="-1" relative="1" as="geometry">
            <mxPoint as="offset" />
          </mxGeometry>
        </mxCell>
        <mxCell id="5KCe0Mzcngsaxb6O9eFy-12" style="rounded=0;orthogonalLoop=1;jettySize=auto;html=1;exitX=0;exitY=0.5;exitDx=0;exitDy=0;entryX=1;entryY=0.5;entryDx=0;entryDy=0;" edge="1" parent="1" source="OyjHdzlQmHsCcurxc1R6-1" target="5KCe0Mzcngsaxb6O9eFy-11">
          <mxGeometry relative="1" as="geometry" />
        </mxCell>
        <mxCell id="5KCe0Mzcngsaxb6O9eFy-13" value="Validate faculty information" style="edgeLabel;html=1;align=center;verticalAlign=middle;resizable=0;points=[];fontSize=7;" vertex="1" connectable="0" parent="5KCe0Mzcngsaxb6O9eFy-12">
          <mxGeometry x="0.1422" y="-1" relative="1" as="geometry">
            <mxPoint as="offset" />
          </mxGeometry>
        </mxCell>
        <mxCell id="OyjHdzlQmHsCcurxc1R6-1" value="LibSys" style="ellipse;whiteSpace=wrap;html=1;" parent="1" vertex="1">
          <mxGeometry x="365" y="320" width="100" height="100" as="geometry" />
        </mxCell>
        <mxCell id="OyjHdzlQmHsCcurxc1R6-12" style="edgeStyle=orthogonalEdgeStyle;rounded=0;orthogonalLoop=1;jettySize=auto;html=1;exitX=0.203;exitY=1.011;exitDx=0;exitDy=0;entryX=0;entryY=0;entryDx=0;entryDy=0;curved=1;exitPerimeter=0;" parent="1" source="OyjHdzlQmHsCcurxc1R6-2" target="OyjHdzlQmHsCcurxc1R6-1" edge="1">
          <mxGeometry relative="1" as="geometry">
            <Array as="points">
              <mxPoint x="330" y="141" />
              <mxPoint x="330" y="335" />
            </Array>
          </mxGeometry>
        </mxCell>
        <mxCell id="OyjHdzlQmHsCcurxc1R6-13" value="Pay fine" style="edgeLabel;html=1;align=center;verticalAlign=middle;resizable=0;points=[];fontSize=7;" parent="OyjHdzlQmHsCcurxc1R6-12" vertex="1" connectable="0">
          <mxGeometry x="0.0188" relative="1" as="geometry">
            <mxPoint as="offset" />
          </mxGeometry>
        </mxCell>
        <mxCell id="OyjHdzlQmHsCcurxc1R6-2" value="Borrower" style="rounded=0;whiteSpace=wrap;html=1;" parent="1" vertex="1">
          <mxGeometry x="355" y="80" width="120" height="60" as="geometry" />
        </mxCell>
        <mxCell id="OyjHdzlQmHsCcurxc1R6-9" style="edgeStyle=orthogonalEdgeStyle;rounded=0;orthogonalLoop=1;jettySize=auto;html=1;exitX=1;exitY=0;exitDx=0;exitDy=0;entryX=0.792;entryY=0.994;entryDx=0;entryDy=0;entryPerimeter=0;" parent="1" source="OyjHdzlQmHsCcurxc1R6-1" target="OyjHdzlQmHsCcurxc1R6-2" edge="1">
          <mxGeometry relative="1" as="geometry">
            <mxPoint x="450" y="230" as="targetPoint" />
            <Array as="points">
              <mxPoint x="450" y="300" />
              <mxPoint x="450" y="300" />
            </Array>
          </mxGeometry>
        </mxCell>
        <mxCell id="OyjHdzlQmHsCcurxc1R6-11" value="&lt;font style=&quot;font-size: 7px;&quot;&gt;Send back &lt;br style=&quot;font-size: 7px;&quot;&gt;book information&amp;nbsp;&amp;nbsp;&lt;/font&gt;" style="edgeLabel;html=1;align=center;verticalAlign=middle;resizable=0;points=[];fontSize=7;" parent="OyjHdzlQmHsCcurxc1R6-9" vertex="1" connectable="0">
          <mxGeometry y="1" relative="1" as="geometry">
            <mxPoint as="offset" />
          </mxGeometry>
        </mxCell>
        <mxCell id="OyjHdzlQmHsCcurxc1R6-14" style="edgeStyle=orthogonalEdgeStyle;rounded=0;orthogonalLoop=1;jettySize=auto;html=1;exitX=1;exitY=0;exitDx=0;exitDy=0;entryX=0.798;entryY=1.017;entryDx=0;entryDy=0;entryPerimeter=0;curved=1;" parent="1" source="OyjHdzlQmHsCcurxc1R6-1" target="OyjHdzlQmHsCcurxc1R6-2" edge="1">
          <mxGeometry relative="1" as="geometry">
            <Array as="points">
              <mxPoint x="500" y="335" />
              <mxPoint x="500" y="141" />
            </Array>
          </mxGeometry>
        </mxCell>
        <mxCell id="OyjHdzlQmHsCcurxc1R6-15" value="&lt;font style=&quot;font-size: 7px;&quot;&gt;Send &lt;br style=&quot;font-size: 7px;&quot;&gt;payment detail&lt;/font&gt;" style="edgeLabel;html=1;align=center;verticalAlign=middle;resizable=0;points=[];fontSize=7;" parent="OyjHdzlQmHsCcurxc1R6-14" vertex="1" connectable="0">
          <mxGeometry x="0.0063" y="-1" relative="1" as="geometry">
            <mxPoint as="offset" />
          </mxGeometry>
        </mxCell>
        <mxCell id="OyjHdzlQmHsCcurxc1R6-16" value="System" style="rounded=0;whiteSpace=wrap;html=1;" parent="1" vertex="1">
          <mxGeometry x="600" y="340" width="120" height="60" as="geometry" />
        </mxCell>
        <mxCell id="SwQY4FijEqjxK7WzBjNQ-1" style="edgeStyle=orthogonalEdgeStyle;rounded=0;orthogonalLoop=1;jettySize=auto;html=1;exitX=0;exitY=0.75;exitDx=0;exitDy=0;entryX=0.977;entryY=0.649;entryDx=0;entryDy=0;entryPerimeter=0;" parent="1" source="OyjHdzlQmHsCcurxc1R6-16" target="OyjHdzlQmHsCcurxc1R6-1" edge="1">
          <mxGeometry relative="1" as="geometry" />
        </mxCell>
        <mxCell id="SwQY4FijEqjxK7WzBjNQ-3" value="Update book status&lt;br style=&quot;font-size: 7px;&quot;&gt;Email reminder&lt;br&gt;Fine" style="edgeLabel;html=1;align=center;verticalAlign=middle;resizable=0;points=[];fontSize=7;" parent="SwQY4FijEqjxK7WzBjNQ-1" vertex="1" connectable="0">
          <mxGeometry x="-0.0733" y="-1" relative="1" as="geometry">
            <mxPoint x="1" as="offset" />
          </mxGeometry>
        </mxCell>
        <mxCell id="5KCe0Mzcngsaxb6O9eFy-2" value="Library Manager" style="rounded=0;whiteSpace=wrap;html=1;" vertex="1" parent="1">
          <mxGeometry x="355" y="490" width="120" height="60" as="geometry" />
        </mxCell>
        <mxCell id="5KCe0Mzcngsaxb6O9eFy-4" value="Guest&#39;s Database" style="rounded=0;whiteSpace=wrap;html=1;" vertex="1" parent="1">
          <mxGeometry x="120" y="300" width="70" height="30" as="geometry" />
        </mxCell>
        <mxCell id="5KCe0Mzcngsaxb6O9eFy-8" value="Student&#39;s Database" style="rounded=0;whiteSpace=wrap;html=1;" vertex="1" parent="1">
          <mxGeometry x="120" y="355" width="70" height="30" as="geometry" />
        </mxCell>
        <mxCell id="5KCe0Mzcngsaxb6O9eFy-11" value="Faculty&#39;s Database" style="rounded=0;whiteSpace=wrap;html=1;" vertex="1" parent="1">
          <mxGeometry x="120" y="410" width="70" height="30" as="geometry" />
        </mxCell>
        <mxCell id="5KCe0Mzcngsaxb6O9eFy-15" style="edgeStyle=orthogonalEdgeStyle;rounded=0;orthogonalLoop=1;jettySize=auto;html=1;exitX=0.25;exitY=0;exitDx=0;exitDy=0;entryX=0.209;entryY=0.903;entryDx=0;entryDy=0;entryPerimeter=0;" edge="1" parent="1" source="5KCe0Mzcngsaxb6O9eFy-2" target="OyjHdzlQmHsCcurxc1R6-1">
          <mxGeometry relative="1" as="geometry">
            <Array as="points" />
          </mxGeometry>
        </mxCell>
        <mxCell id="5KCe0Mzcngsaxb6O9eFy-16" value="Add/remove books" style="edgeLabel;html=1;align=center;verticalAlign=middle;resizable=0;points=[];fontSize=7;" vertex="1" connectable="0" parent="5KCe0Mzcngsaxb6O9eFy-15">
          <mxGeometry x="-0.0017" relative="1" as="geometry">
            <mxPoint as="offset" />
          </mxGeometry>
        </mxCell>
      </root>
    </mxGraphModel>
  </diagram>
</mxfile>
